<svg version="1.1" id="Layer_1" xmlns="http://www.w3.org/2000/svg" xmlns:xlink="http://www.w3.org/1999/xlink" x="0px" y="0px"
	 width="100%" viewBox="0 0 1280 1278" enable-background="new 0 0 1280 1278" xml:space="preserve">
<path fill="#010100" opacity="1.000000" stroke="none" 
	d="
M1281.000000,457.000000 
	C1281.000000,731.333313 1281.000000,1005.166565 1281.000000,1279.000000 
	C854.333435,1279.000000 427.666931,1279.000000 1.000282,1279.000000 
	C1.000188,853.000183 1.000188,427.000397 1.000094,1.000453 
	C427.666382,1.000302 854.332764,1.000302 1280.999512,1.000151 
	C1281.000000,152.833328 1281.000000,304.666656 1281.000000,457.000000 
M65.138695,1215.397583 
	C67.590523,1215.619385 70.042328,1216.035156 72.494164,1216.035400 
	C452.148987,1216.065430 831.803772,1216.065796 1211.458618,1216.052246 
	C1213.208740,1216.052124 1214.958984,1215.832886 1217.000732,1215.696533 
	C1217.000732,1213.444214 1217.000732,1211.791382 1217.000854,1210.138428 
	C1217.002441,831.150208 1217.004272,452.162048 1217.003906,73.173843 
	C1217.003906,71.174072 1217.332275,69.073257 1216.810059,67.215652 
	C1216.534546,66.235672 1214.750000,65.679916 1212.759644,64.820763 
	C1195.428711,64.794937 1178.097656,64.746727 1160.766724,64.746574 
	C798.632751,64.743439 436.498718,64.745758 74.364731,64.747002 
	C71.281731,64.747009 68.198730,64.747002 64.741524,64.747002 
	C64.741524,68.798225 64.741501,71.945740 64.741524,75.093254 
	C64.744820,450.392700 64.747284,825.692139 64.761093,1200.991577 
	C64.761253,1205.484985 64.907860,1209.978271 65.138695,1215.397583 
z"/>
<path fill="#EC1C36" opacity="1.000000" stroke="none" 
	d="
M64.986107,1214.471680 
	C64.907860,1209.978271 64.761253,1205.484985 64.761093,1200.991577 
	C64.747284,825.692139 64.744820,450.392700 64.741524,75.093254 
	C64.741501,71.945740 64.741524,68.798225 64.741524,64.747002 
	C68.198730,64.747002 71.281731,64.747009 74.364731,64.747002 
	C436.498718,64.745758 798.632751,64.743439 1160.766724,64.746574 
	C1178.097656,64.746727 1195.428711,64.794937 1213.458984,65.236717 
	C1214.471924,68.596596 1215.059937,71.540482 1215.060303,74.484451 
	C1215.100464,446.590576 1215.097656,818.696716 1215.095337,1190.802856 
	C1215.095337,1195.968262 1215.049316,1201.133789 1215.071045,1206.299072 
	C1215.108887,1215.268433 1215.904541,1214.819336 1206.282349,1214.819458 
	C829.010437,1214.825684 451.738495,1214.831665 74.466553,1214.821045 
	C71.306404,1214.820923 68.146255,1214.593262 64.986107,1214.471680 
M468.617035,842.037842 
	C468.802399,842.342285 469.071167,842.466614 469.534149,842.414551 
	C469.534149,842.414551 469.565979,842.520813 469.586426,843.202332 
	C471.651855,845.524658 473.496277,848.110901 475.853485,850.084717 
	C477.700378,851.631226 480.182159,852.419495 482.214783,853.751465 
	C482.214783,853.751465 482.415131,853.576538 482.516602,854.255737 
	C487.416809,857.424194 492.317017,860.592651 497.088593,863.872375 
	C497.088593,863.872375 497.179413,863.728577 497.395020,864.377625 
	C502.946838,867.561035 508.224487,871.431213 514.109314,873.780579 
	C525.323792,878.257690 536.664124,882.767639 548.352356,885.630188 
	C567.011169,890.199829 586.256409,891.135803 605.348389,889.660767 
	C618.175171,888.669678 631.004333,886.200745 643.512451,883.101562 
	C652.454651,880.885864 661.006042,876.839355 669.472534,873.032837 
	C676.979431,869.657776 684.165344,865.553955 691.389160,861.582947 
	C692.290710,861.087402 692.556580,859.435608 693.221313,858.122620 
	C693.221313,858.122620 693.443787,858.110291 693.630920,858.182983 
	C693.630920,858.182983 693.855957,857.898804 694.330566,857.343079 
	C694.762329,857.121521 695.194031,856.900024 696.270386,856.693542 
	C696.849731,856.125732 697.429016,855.557861 698.004883,855.007874 
	C698.004883,855.007874 697.987305,855.006104 698.685242,854.941467 
	C699.958618,853.803101 701.231995,852.664734 702.528687,851.460632 
	C702.528687,851.460632 702.597839,851.451599 703.297241,851.569641 
	C704.673279,850.220459 706.049377,848.871277 707.465454,847.386963 
	C707.465454,847.386963 707.606384,847.390747 708.073914,847.350769 
	C708.393250,847.202026 708.555359,846.951538 708.705627,846.710449 
	C708.705627,846.710449 708.599976,846.560974 709.219971,846.493958 
	C709.732544,845.894226 710.245056,845.294434 710.879456,844.859985 
	C710.879456,844.859985 710.722290,844.727844 711.423462,844.706726 
	C712.577942,843.421875 713.732361,842.137024 714.949280,840.944458 
	C714.949280,840.944458 714.853088,840.888367 715.535217,840.781128 
	C718.837830,837.054260 722.140442,833.327393 725.447327,829.484924 
	C725.447327,829.484924 725.559143,829.455261 726.228088,829.379639 
	C728.375671,826.484619 730.523254,823.589600 732.990234,820.984802 
	C732.990234,820.984802 732.663391,820.703308 733.326599,820.530518 
	C735.551697,817.013977 737.776855,813.497437 740.010376,810.004089 
	C740.010376,810.004089 739.986084,810.006592 740.661987,809.863037 
	C741.545227,808.922607 742.716370,808.125000 743.265442,807.018738 
	C747.251953,798.986023 751.542419,791.066467 754.926880,782.780396 
	C762.592834,764.012329 767.704346,744.389587 767.743591,724.133911 
	C768.045410,568.392639 767.874817,412.650482 768.088257,256.908905 
	C768.111389,240.050766 767.288147,223.536423 758.807312,208.571350 
	C756.510742,204.518738 752.173767,201.622391 748.859924,198.153275 
	C748.859924,198.153275 748.828369,198.244232 748.631165,197.652008 
	C747.992920,197.177399 747.354614,196.702774 746.869385,196.109802 
	C746.869385,196.109802 746.750549,196.262451 746.714478,195.568695 
	C743.982788,193.000900 741.660767,189.629761 738.453552,187.994324 
	C715.833374,176.459641 692.700684,175.380798 669.529724,186.234283 
	C665.757446,188.001236 662.879639,191.677597 659.567627,194.584549 
	C659.567627,194.584549 659.453735,194.600739 658.742432,194.590149 
	C655.450867,197.571762 651.970642,200.377518 648.953430,203.614838 
	C647.600159,205.066803 647.173889,207.382690 646.048889,209.098206 
	C646.048889,209.098206 646.343140,209.282623 645.687439,209.487305 
	C643.951477,212.413834 641.837708,215.189926 640.594666,218.312653 
	C639.525513,220.998672 639.449890,224.080185 638.925232,227.732010 
	C638.785767,228.206009 638.646362,228.679993 637.958923,229.532318 
	C637.273804,233.396057 636.588684,237.259781 635.509949,241.665741 
	C635.597473,243.366440 635.684937,245.067139 635.811462,247.531860 
	C635.794983,248.041656 635.778503,248.551437 635.391907,249.784531 
	C635.261292,252.103012 635.016602,254.421494 635.016296,256.739990 
	C634.998230,404.230621 634.999207,551.721252 635.003906,699.211914 
	C635.004028,703.211243 635.062744,707.210632 635.104065,712.017944 
	C635.041321,713.665161 634.978577,715.312439 634.507629,717.581726 
	C634.369080,718.838074 634.230591,720.094360 633.925110,722.121582 
	C633.738708,723.973511 633.552307,725.825439 633.445374,727.832825 
	C633.445374,727.832825 633.301819,727.932312 632.732117,728.364197 
	C631.788025,729.729431 630.684509,731.011780 629.924805,732.472900 
	C623.564514,744.705017 613.845459,752.676819 600.102173,754.640564 
	C589.932678,756.093689 579.899414,755.278503 570.906860,749.202209 
	C567.833191,747.125244 564.316284,745.704285 561.005737,743.994263 
	C561.005737,743.994263 561.015808,743.999329 561.010803,743.276611 
	C558.839844,741.049500 556.668823,738.822449 554.355408,736.538635 
	C554.355408,736.538635 554.375671,736.386658 554.613892,735.630798 
	C554.239563,734.213989 554.123230,732.658325 553.448242,731.403320 
	C549.667297,724.373352 547.827576,716.980286 547.830750,708.934326 
	C547.892212,554.023193 547.905640,399.112061 547.733704,244.201111 
	C547.726868,238.013565 545.897217,231.809006 544.724182,225.649048 
	C544.040710,222.060349 543.866211,218.110138 539.998474,215.965424 
	C539.998474,215.965424 540.039612,215.919235 540.084229,215.121628 
	C539.779419,210.420227 537.686707,206.895676 533.149048,204.829590 
	C533.149048,204.829590 533.147461,204.645432 533.108521,203.951736 
	C528.020142,198.708450 523.617249,192.413879 517.647766,188.522003 
	C511.853058,184.744064 504.555267,183.045303 497.712067,181.192566 
	C494.018311,180.192490 489.894379,180.781204 485.255188,180.747208 
	C484.787018,180.670120 484.318878,180.593033 483.295166,180.159561 
	C481.570679,180.284454 479.846191,180.409332 477.284882,180.727570 
	C475.855682,180.763565 474.426453,180.799545 472.331635,180.472672 
	C464.121918,180.052490 456.892700,182.752991 450.044312,187.052261 
	C450.044312,187.052261 450.294342,187.389572 449.521210,187.308777 
	C442.155945,188.211411 438.033691,194.121231 432.788574,198.266205 
	C432.183899,198.744049 432.282257,200.111465 432.003906,201.003510 
	C432.003906,201.003510 432.069977,201.050079 431.378235,201.131317 
	C422.073242,209.201416 418.518524,220.106781 416.364075,231.686249 
	C416.289703,232.085938 416.727509,232.580948 416.951141,233.797058 
	C416.838226,234.550507 416.725311,235.303940 416.095428,236.514618 
	C415.433472,239.904266 414.286499,243.284271 414.218872,246.685730 
	C414.106903,252.318222 414.941803,257.964447 414.943634,263.605042 
	C414.990204,408.485748 414.983765,553.366455 414.953796,698.247192 
	C414.953247,700.894287 414.335510,703.545166 414.383453,706.187500 
	C414.522369,713.845947 412.333618,721.752075 416.818207,729.723389 
	C416.818085,730.465942 416.817963,731.208557 416.443970,732.668091 
	C416.395569,735.308655 415.883820,738.038208 416.371643,740.575684 
	C420.478973,761.940552 425.755920,782.962891 436.712799,802.043640 
	C438.859467,805.781860 441.874146,809.021606 444.443756,812.563049 
	C444.443756,812.563049 444.527588,812.551636 444.520508,813.266174 
	C445.721558,814.802368 446.922638,816.338623 448.004974,817.986938 
	C448.004974,817.986938 448.131653,817.884827 448.117340,818.601074 
	C449.105652,819.719910 450.093964,820.838806 451.013306,821.979553 
	C451.013306,821.979553 451.051910,821.918335 451.115692,822.630493 
	C453.472595,825.964355 455.590179,829.507690 458.264648,832.563660 
	C460.276733,834.862793 463.003235,836.536621 465.488922,838.503296 
	C465.488922,838.503296 465.506104,838.579956 465.596069,839.053406 
	C465.774597,839.365112 466.043243,839.512451 466.490997,839.511108 
	C466.490997,839.511108 466.506836,839.600037 466.607910,840.060364 
	C466.799316,840.357239 467.070557,840.485596 467.537537,840.465576 
	C467.537537,840.465576 467.551758,840.582397 467.625000,841.051453 
	C467.804932,841.362122 468.073273,841.497437 468.527954,841.476562 
	C468.527954,841.476562 468.542358,841.575317 468.617035,842.037842 
M327.547882,894.246216 
	C327.692932,891.763611 327.964691,889.280945 327.964966,886.798340 
	C327.984467,704.801025 327.982605,522.803711 327.981934,340.806396 
	C327.981842,309.140198 328.117340,277.472778 327.835846,245.809052 
	C327.791718,240.849319 325.848572,235.906464 324.690369,230.846039 
	C324.690369,230.846039 324.790985,230.743042 324.860962,229.931976 
	C324.470245,228.998154 324.079529,228.064331 323.231934,226.590714 
	C315.942474,204.822937 301.502167,190.355194 279.412476,183.729004 
	C248.690369,174.513321 216.344666,187.354813 201.352859,214.793304 
	C194.272461,227.752045 192.653091,241.809601 192.715210,256.367401 
	C193.535965,448.691193 194.217361,641.015564 194.982330,833.339600 
	C195.127487,869.833252 194.166962,906.393127 196.021622,942.805115 
	C199.702866,1015.077209 256.721191,1067.916504 329.199432,1067.921997 
	C603.194702,1067.943115 877.190002,1067.933838 1151.185303,1067.935913 
	C1152.816895,1067.935913 1154.448486,1067.936035 1156.668213,1067.936035 
	C1156.024902,1065.839600 1155.644165,1064.251465 1155.057983,1062.743042 
	C1150.235718,1050.333252 1145.373657,1037.938965 1140.526733,1025.538696 
	C1101.857056,926.605103 1063.193970,827.668823 1024.516724,728.738159 
	C1001.841797,670.739258 979.116211,612.760254 956.471741,554.749512 
	C947.375427,531.446472 948.362976,509.261108 961.988220,487.416962 
	C1003.233154,421.292816 1043.943726,354.835327 1084.837402,288.492218 
	C1088.239380,282.973083 1092.821045,277.713898 1094.479980,271.680939 
	C1098.419556,257.354462 1100.186035,242.767075 1095.968628,227.841263 
	C1083.380249,183.289597 1030.754028,164.897720 994.197571,192.582672 
	C984.976685,199.565826 979.070496,209.135651 973.265259,218.984482 
	C958.977661,243.223831 944.102661,267.116547 929.498779,291.169800 
	C902.018188,336.431396 874.632874,381.751007 847.062805,426.957977 
	C835.352295,446.159943 823.561890,465.174835 817.358887,487.191895 
	C810.668640,510.938446 808.619507,534.485107 818.262329,557.711670 
	C846.030579,624.596130 874.136841,691.340271 902.110779,758.139343 
	C925.906677,814.961426 949.704956,871.782532 973.489624,928.609314 
	C974.144958,930.175110 974.657593,931.800598 975.435425,933.946289 
	C972.367188,933.946289 970.208984,933.946350 968.050781,933.946289 
	C769.054260,933.941956 570.057678,933.937683 371.061127,933.932007 
	C369.561340,933.932007 368.059357,933.961365 366.562103,933.894531 
	C346.443085,932.996277 327.902832,914.671082 327.547882,894.246216 
z"/>
<path fill="#9E5854" opacity="1.000000" stroke="none" 
	d="
M65.062401,1214.934570 
	C68.146255,1214.593262 71.306404,1214.820923 74.466553,1214.821045 
	C451.738495,1214.831665 829.010437,1214.825684 1206.282349,1214.819458 
	C1215.904541,1214.819336 1215.108887,1215.268433 1215.071045,1206.299072 
	C1215.049316,1201.133789 1215.095337,1195.968262 1215.095337,1190.802856 
	C1215.097656,818.696716 1215.100464,446.590576 1215.060303,74.484451 
	C1215.059937,71.540482 1214.471924,68.596596 1213.902588,65.292648 
	C1214.750000,65.679916 1216.534546,66.235672 1216.810059,67.215652 
	C1217.332275,69.073257 1217.003906,71.174072 1217.003906,73.173843 
	C1217.004272,452.162048 1217.002441,831.150208 1217.000854,1210.138428 
	C1217.000732,1211.791382 1217.000732,1213.444214 1217.000732,1215.696533 
	C1214.958984,1215.832886 1213.208740,1216.052124 1211.458618,1216.052246 
	C831.803772,1216.065796 452.148987,1216.065430 72.494164,1216.035400 
	C70.042328,1216.035156 67.590523,1215.619385 65.062401,1214.934570 
z"/>
<path fill="#FFFEFE" opacity="1.000000" stroke="none" 
	d="
M324.790985,230.743042 
	C324.790985,230.743042 324.690369,230.846039 324.725647,231.332977 
	C325.442810,238.260712 326.717407,244.701172 326.720673,251.142303 
	C326.828644,463.761414 326.813873,676.380615 326.832855,888.999756 
	C326.833038,890.986938 327.043579,892.974121 327.155914,894.961304 
	C327.902832,914.671082 346.443085,932.996277 366.562103,933.894531 
	C368.059357,933.961365 369.561340,933.932007 371.061127,933.932007 
	C570.057678,933.937683 769.054260,933.941956 968.050781,933.946289 
	C970.208984,933.946350 972.367188,933.946289 975.435425,933.946289 
	C974.657593,931.800598 974.144958,930.175110 973.489624,928.609314 
	C949.704956,871.782532 925.906677,814.961426 902.110779,758.139343 
	C874.136841,691.340271 846.030579,624.596130 818.262329,557.711670 
	C808.619507,534.485107 810.668640,510.938446 817.358887,487.191895 
	C823.561890,465.174835 835.352295,446.159943 847.062805,426.957977 
	C874.632874,381.751007 902.018188,336.431396 929.498779,291.169800 
	C944.102661,267.116547 958.977661,243.223831 973.265259,218.984482 
	C979.070496,209.135651 984.976685,199.565826 994.197571,192.582672 
	C1030.754028,164.897720 1083.380249,183.289597 1095.968628,227.841263 
	C1100.186035,242.767075 1098.419556,257.354462 1094.479980,271.680939 
	C1092.821045,277.713898 1088.239380,282.973083 1084.837402,288.492218 
	C1043.943726,354.835327 1003.233154,421.292816 961.988220,487.416962 
	C948.362976,509.261108 947.375427,531.446472 956.471741,554.749512 
	C979.116211,612.760254 1001.841797,670.739258 1024.516724,728.738159 
	C1063.193970,827.668823 1101.857056,926.605103 1140.526733,1025.538696 
	C1145.373657,1037.938965 1150.235718,1050.333252 1155.057983,1062.743042 
	C1155.644165,1064.251465 1156.024902,1065.839600 1156.668213,1067.936035 
	C1154.448486,1067.936035 1152.816895,1067.935913 1151.185303,1067.935913 
	C877.190002,1067.933838 603.194702,1067.943115 329.199432,1067.921997 
	C256.721191,1067.916504 199.702866,1015.077209 196.021622,942.805115 
	C194.166962,906.393127 195.127487,869.833252 194.982330,833.339600 
	C194.217361,641.015564 193.535965,448.691193 192.715210,256.367401 
	C192.653091,241.809601 194.272461,227.752045 201.352859,214.793304 
	C216.344666,187.354813 248.690369,174.513321 279.412476,183.729004 
	C301.502167,190.355194 315.942474,204.822937 323.466003,227.247528 
	C324.063690,228.850555 324.427338,229.796799 324.790985,230.743042 
z"/>
<path fill="#FFFEFE" opacity="1.000000" stroke="none" 
	d="
M416.817841,731.951111 
	C416.817963,731.208557 416.818085,730.465942 416.807251,728.916077 
	C416.571442,721.455933 416.152161,714.803101 416.150330,708.150208 
	C416.110809,562.596375 416.106171,417.042572 416.137115,271.488770 
	C416.139648,259.678284 416.446777,247.867844 416.612396,236.057388 
	C416.725311,235.303940 416.838226,234.550507 417.109955,233.082794 
	C419.525482,220.663879 424.617859,210.299362 432.069977,201.050079 
	C432.069977,201.050079 432.003906,201.003510 432.351746,200.933624 
	C438.564484,196.372360 444.429413,191.880966 450.294342,187.389587 
	C450.294342,187.389572 450.044312,187.052261 450.541931,187.173187 
	C458.358765,185.141251 465.678009,182.988388 472.997253,180.835510 
	C474.426453,180.799545 475.855682,180.763565 478.099304,180.747162 
	C480.559387,180.683151 482.205048,180.599548 483.850708,180.515961 
	C484.318878,180.593033 484.787018,180.670120 486.011047,180.834534 
	C505.509918,182.411636 520.953003,190.352951 533.147461,204.645432 
	C533.147461,204.645432 533.149048,204.829590 533.347107,205.164398 
	C535.709961,208.972565 537.874817,212.445908 540.039612,215.919235 
	C540.039612,215.919235 539.998474,215.965424 540.046936,216.350983 
	C544.307495,226.165894 546.081482,236.069687 546.081604,246.367767 
	C546.083374,363.140656 546.112671,479.913513 546.135254,596.686401 
	C546.142517,634.000488 546.101746,671.314636 546.192566,708.628540 
	C546.216919,718.620483 548.349426,728.107056 554.375671,736.386658 
	C554.375671,736.386658 554.355408,736.538635 554.554382,736.869934 
	C556.840820,739.467285 558.928345,741.733276 561.015808,743.999329 
	C561.015808,743.999329 561.005737,743.994263 561.103027,744.312683 
	C572.534058,754.458618 585.648560,758.214355 600.459900,756.077271 
	C616.075500,753.824158 629.891602,741.957336 633.301819,727.932312 
	C633.301819,727.932312 633.445374,727.832825 633.660278,727.499817 
	C634.347473,725.083313 634.819763,722.999878 635.468750,720.577026 
	C635.700256,719.477783 635.755127,718.717896 635.989868,717.611755 
	C636.265625,715.143188 636.361511,713.020996 636.542175,710.480103 
	C636.601990,708.353882 636.577026,706.646240 636.694702,704.496704 
	C636.863892,703.222839 636.913696,702.390930 636.913696,701.558960 
	C636.917664,551.508667 636.918945,401.458344 636.904846,251.408020 
	C636.904663,249.921921 636.698120,248.435867 636.663696,246.533051 
	C636.744202,244.425049 636.748962,242.733780 636.895142,240.661011 
	C637.526611,236.570999 638.016724,232.862503 638.506897,229.153992 
	C638.646362,228.679993 638.785767,228.206009 639.106689,227.051605 
	C641.639771,220.675003 643.991455,214.978806 646.343140,209.282623 
	C646.343140,209.282623 646.048889,209.098206 646.484314,209.057983 
	C651.097717,204.212082 655.275696,199.406403 659.453735,194.600739 
	C659.453735,194.600739 659.567627,194.584549 659.889587,194.401398 
	C673.728882,184.040192 688.985107,179.438782 705.836243,180.234924 
	C721.250549,180.963226 734.816895,186.568542 746.750549,196.262451 
	C746.750549,196.262451 746.869385,196.109802 746.887573,196.462524 
	C747.546631,197.291580 748.187500,197.767899 748.828369,198.244232 
	C748.828369,198.244232 748.859924,198.153275 748.919800,198.498322 
	C762.347778,212.817566 766.896179,229.888336 766.889832,248.731384 
	C766.838074,403.014648 766.939941,557.298096 766.706543,711.580994 
	C766.687500,724.164978 765.184998,736.848816 763.221619,749.304993 
	C759.787476,771.092773 751.053589,791.041870 739.986084,810.006592 
	C739.986084,810.006592 740.010376,810.004089 739.714233,810.159485 
	C737.166565,813.777710 734.914978,817.240540 732.663391,820.703308 
	C732.663391,820.703308 732.990234,820.984802 732.538574,820.988525 
	C729.911011,823.813232 727.735107,826.634277 725.559204,829.455322 
	C725.559143,829.455261 725.447327,829.484924 725.164185,829.702026 
	C721.538452,833.575500 718.195801,837.231934 714.853088,840.888367 
	C714.853088,840.888367 714.949280,840.944458 714.609863,840.997925 
	C713.087708,842.276855 711.904968,843.502319 710.722290,844.727844 
	C710.722290,844.727844 710.879456,844.859985 710.527588,844.847229 
	C709.650391,845.409973 709.125183,845.985413 708.599976,846.560913 
	C708.599976,846.560974 708.705627,846.710449 708.412231,846.698608 
	C707.833618,846.838074 707.662781,847.072754 707.606384,847.390747 
	C707.606384,847.390747 707.465454,847.386963 707.149048,847.568726 
	C705.421021,848.984253 704.009460,850.217896 702.597839,851.451599 
	C702.597839,851.451599 702.528687,851.460632 702.211548,851.600220 
	C700.592041,852.828613 699.289673,853.917358 697.987305,855.006104 
	C697.987305,855.006104 698.004883,855.007874 697.701660,855.043945 
	C696.807556,855.612915 696.216675,856.145752 695.625732,856.678528 
	C695.194031,856.900024 694.762329,857.121521 693.998169,857.554565 
	C693.665771,857.765991 693.443787,858.110291 693.443787,858.110291 
	C693.443787,858.110291 693.221313,858.122620 692.851074,858.334045 
	C646.216919,888.282043 596.319885,895.720459 543.140564,882.796143 
	C526.841614,878.834900 511.874084,871.593384 497.179413,863.728577 
	C497.179413,863.728577 497.088593,863.872375 496.993561,863.520630 
	C492.070740,859.971375 487.242920,856.773987 482.415131,853.576538 
	C482.415131,853.576538 482.214783,853.751465 482.148621,853.357117 
	C477.910278,849.482117 473.738129,846.001465 469.565979,842.520813 
	C469.565979,842.520813 469.534149,842.414551 469.407715,842.204895 
	C469.103668,841.734253 468.857361,841.594299 468.542358,841.575317 
	C468.542358,841.575317 468.527954,841.476562 468.416107,841.250244 
	C468.129486,840.747131 467.878632,840.599915 467.551758,840.582397 
	C467.551758,840.582397 467.537537,840.465576 467.411285,840.237793 
	C467.098297,839.735352 466.838898,839.598694 466.506836,839.600037 
	C466.506836,839.600037 466.490997,839.511108 466.386566,839.277466 
	C466.106842,838.749695 465.848175,838.595093 465.506104,838.579956 
	C465.506104,838.579956 465.488922,838.503296 465.328430,838.187805 
	C460.462585,832.554321 455.757233,827.236328 451.051910,821.918335 
	C451.051910,821.918335 451.013306,821.979553 450.985657,821.650513 
	C450.015869,820.175964 449.073761,819.030396 448.131653,817.884827 
	C448.131653,817.884827 448.004974,817.986938 447.980927,817.612366 
	C446.813782,815.675720 445.670685,814.113708 444.527588,812.551636 
	C444.527588,812.551636 444.443756,812.563049 444.359680,812.197021 
	C440.534668,804.987671 436.513519,798.280640 433.107025,791.274658 
	C423.996277,772.537109 419.556976,752.465454 416.817841,731.951111 
z"/>
<path fill="#D6455A" opacity="1.000000" stroke="none" 
	d="
M554.494751,736.008728 
	C548.349426,728.107056 546.216919,718.620483 546.192566,708.628540 
	C546.101746,671.314636 546.142517,634.000488 546.135254,596.686401 
	C546.112671,479.913513 546.083374,363.140656 546.081604,246.367767 
	C546.081482,236.069687 544.307495,226.165894 540.077026,216.358246 
	C543.866211,218.110138 544.040710,222.060349 544.724182,225.649048 
	C545.897217,231.809006 547.726868,238.013565 547.733704,244.201111 
	C547.905640,399.112061 547.892212,554.023193 547.830750,708.934326 
	C547.827576,716.980286 549.667297,724.373352 553.448242,731.403320 
	C554.123230,732.658325 554.239563,734.213989 554.494751,736.008728 
z"/>
<path fill="#D6455A" opacity="1.000000" stroke="none" 
	d="
M740.324036,809.934814 
	C751.053589,791.041870 759.787476,771.092773 763.221619,749.304993 
	C765.184998,736.848816 766.687500,724.164978 766.706543,711.580994 
	C766.939941,557.298096 766.838074,403.014648 766.889832,248.731384 
	C766.896179,229.888336 762.347778,212.817566 748.876465,198.519348 
	C752.173767,201.622391 756.510742,204.518738 758.807312,208.571350 
	C767.288147,223.536423 768.111389,240.050766 768.088257,256.908905 
	C767.874817,412.650482 768.045410,568.392639 767.743591,724.133911 
	C767.704346,744.389587 762.592834,764.012329 754.926880,782.780396 
	C751.542419,791.066467 747.251953,798.986023 743.265442,807.018738 
	C742.716370,808.125000 741.545227,808.922607 740.324036,809.934814 
z"/>
<path fill="#CC1C39" opacity="1.000000" stroke="none" 
	d="
M327.351898,894.603760 
	C327.043579,892.974121 326.833038,890.986938 326.832855,888.999756 
	C326.813873,676.380615 326.828644,463.761414 326.720673,251.142303 
	C326.717407,244.701172 325.442810,238.260712 324.772217,231.387878 
	C325.848572,235.906464 327.791718,240.849319 327.835846,245.809052 
	C328.117340,277.472778 327.981842,309.140198 327.981934,340.806396 
	C327.982605,522.803711 327.984467,704.801025 327.964966,886.798340 
	C327.964691,889.280945 327.692932,891.763611 327.351898,894.603760 
z"/>
<path fill="#D6455A" opacity="1.000000" stroke="none" 
	d="
M416.353912,236.286011 
	C416.446777,247.867844 416.139648,259.678284 416.137115,271.488770 
	C416.106171,417.042572 416.110809,562.596375 416.150330,708.150208 
	C416.152161,714.803101 416.571442,721.455933 416.705872,728.558044 
	C412.333618,721.752075 414.522369,713.845947 414.383453,706.187500 
	C414.335510,703.545166 414.953247,700.894287 414.953796,698.247192 
	C414.983765,553.366455 414.990204,408.485748 414.943634,263.605042 
	C414.941803,257.964447 414.106903,252.318222 414.218872,246.685730 
	C414.286499,243.284271 415.433472,239.904266 416.353912,236.286011 
z"/>
<path fill="#D61631" opacity="1.000000" stroke="none" 
	d="
M636.552063,704.938660 
	C636.577026,706.646240 636.601990,708.353882 636.306091,710.480347 
	C635.688782,711.004395 635.391724,711.107971 635.094116,711.209961 
	C635.062744,707.210632 635.004028,703.211243 635.003906,699.211914 
	C634.999207,551.721252 634.998230,404.230621 635.016296,256.739990 
	C635.016602,254.421494 635.261292,252.103012 635.617554,249.884720 
	C635.861755,252.482285 635.896606,254.979675 635.896667,257.477051 
	C635.899231,404.339905 635.895996,551.202759 635.926147,698.065613 
	C635.926575,700.356689 636.334351,702.647644 636.552063,704.938660 
z"/>
<path fill="#D6455A" opacity="1.000000" stroke="none" 
	d="
M636.694702,704.496704 
	C636.334351,702.647644 635.926575,700.356689 635.926147,698.065613 
	C635.895996,551.202759 635.899231,404.339905 635.896667,257.477051 
	C635.896606,254.979675 635.861755,252.482285 635.802612,249.523071 
	C635.778503,248.551437 635.794983,248.041656 636.002747,247.167587 
	C636.194031,246.803314 636.587891,246.949783 636.587891,246.949783 
	C636.698120,248.435867 636.904663,249.921921 636.904846,251.408020 
	C636.918945,401.458344 636.917664,551.508667 636.913696,701.558960 
	C636.913696,702.390930 636.863892,703.222839 636.694702,704.496704 
z"/>
<path fill="#D6455A" opacity="1.000000" stroke="none" 
	d="
M497.287231,864.053101 
	C511.874084,871.593384 526.841614,878.834900 543.140564,882.796143 
	C596.319885,895.720459 646.216919,888.282043 692.798828,858.432495 
	C692.556580,859.435608 692.290710,861.087402 691.389160,861.582947 
	C684.165344,865.553955 676.979431,869.657776 669.472534,873.032837 
	C661.006042,876.839355 652.454651,880.885864 643.512451,883.101562 
	C631.004333,886.200745 618.175171,888.669678 605.348389,889.660767 
	C586.256409,891.135803 567.011169,890.199829 548.352356,885.630188 
	C536.664124,882.767639 525.323792,878.257690 514.109314,873.780579 
	C508.224487,871.431213 502.946838,867.561035 497.287231,864.053101 
z"/>
<path fill="#D6455A" opacity="1.000000" stroke="none" 
	d="
M746.732544,195.915573 
	C734.816895,186.568542 721.250549,180.963226 705.836243,180.234924 
	C688.985107,179.438782 673.728882,184.040192 659.899963,194.344818 
	C662.879639,191.677597 665.757446,188.001236 669.529724,186.234283 
	C692.700684,175.380798 715.833374,176.459641 738.453552,187.994324 
	C741.660767,189.629761 743.982788,193.000900 746.732544,195.915573 
z"/>
<path fill="#D6455A" opacity="1.000000" stroke="none" 
	d="
M633.016968,728.148254 
	C629.891602,741.957336 616.075500,753.824158 600.459900,756.077271 
	C585.648560,758.214355 572.534058,754.458618 561.101135,744.307373 
	C564.316284,745.704285 567.833191,747.125244 570.906860,749.202209 
	C579.899414,755.278503 589.932678,756.093689 600.102173,754.640564 
	C613.845459,752.676819 623.564514,744.705017 629.924805,732.472900 
	C630.684509,731.011780 631.788025,729.729431 633.016968,728.148254 
z"/>
<path fill="#D6455A" opacity="1.000000" stroke="none" 
	d="
M416.630920,732.309570 
	C419.556976,752.465454 423.996277,772.537109 433.107025,791.274658 
	C436.513519,798.280640 440.534668,804.987671 444.382019,812.161133 
	C441.874146,809.021606 438.859467,805.781860 436.712799,802.043640 
	C425.755920,782.962891 420.478973,761.940552 416.371643,740.575684 
	C415.883820,738.038208 416.395569,735.308655 416.630920,732.309570 
z"/>
<path fill="#D6455A" opacity="1.000000" stroke="none" 
	d="
M533.127991,204.298584 
	C520.953003,190.352951 505.509918,182.411636 486.365723,180.787506 
	C489.894379,180.781204 494.018311,180.192490 497.712067,181.192566 
	C504.555267,183.045303 511.853058,184.744064 517.647766,188.522003 
	C523.617249,192.413879 528.020142,198.708450 533.127991,204.298584 
z"/>
<path fill="#D6455A" opacity="1.000000" stroke="none" 
	d="
M431.724121,201.090698 
	C424.617859,210.299362 419.525482,220.663879 417.097687,232.700043 
	C416.727509,232.580948 416.289703,232.085938 416.364075,231.686249 
	C418.518524,220.106781 422.073242,209.201416 431.724121,201.090698 
z"/>
<path fill="#D6455A" opacity="1.000000" stroke="none" 
	d="
M449.907776,187.349182 
	C444.429413,191.880966 438.564484,196.372360 432.377075,200.965088 
	C432.282257,200.111465 432.183899,198.744049 432.788574,198.266205 
	C438.033691,194.121231 442.155945,188.211411 449.907776,187.349182 
z"/>
<path fill="#D6455A" opacity="1.000000" stroke="none" 
	d="
M451.083801,822.274414 
	C455.757233,827.236328 460.462585,832.554321 465.289795,838.180542 
	C463.003235,836.536621 460.276733,834.862793 458.264648,832.563660 
	C455.590179,829.507690 453.472595,825.964355 451.083801,822.274414 
z"/>
<path fill="#D6455A" opacity="1.000000" stroke="none" 
	d="
M472.664429,180.654083 
	C465.678009,182.988388 458.358765,185.141251 450.657684,187.348297 
	C456.892700,182.752991 464.121918,180.052490 472.664429,180.654083 
z"/>
<path fill="#D6455A" opacity="1.000000" stroke="none" 
	d="
M659.098083,194.595428 
	C655.275696,199.406403 651.097717,204.212082 646.623291,209.162140 
	C647.173889,207.382690 647.600159,205.066803 648.953430,203.614838 
	C651.970642,200.377518 655.450867,197.571762 659.098083,194.595428 
z"/>
<path fill="#D6455A" opacity="1.000000" stroke="none" 
	d="
M646.015259,209.384949 
	C643.991455,214.978806 641.639771,220.675003 639.111572,226.679016 
	C639.449890,224.080185 639.525513,220.998672 640.594666,218.312653 
	C641.837708,215.189926 643.951477,212.413834 646.015259,209.384949 
z"/>
<path fill="#D6455A" opacity="1.000000" stroke="none" 
	d="
M469.576202,842.861572 
	C473.738129,846.001465 477.910278,849.482117 482.232178,853.253662 
	C480.182159,852.419495 477.700378,851.631226 475.853485,850.084717 
	C473.496277,848.110901 471.651855,845.524658 469.576202,842.861572 
z"/>
<path fill="#D6455A" opacity="1.000000" stroke="none" 
	d="
M482.465881,853.916138 
	C487.242920,856.773987 492.070740,859.971375 497.057861,863.464966 
	C492.317017,860.592651 487.416809,857.424194 482.465881,853.916138 
z"/>
<path fill="#D6455A" opacity="1.000000" stroke="none" 
	d="
M715.194153,840.834717 
	C718.195801,837.231934 721.538452,833.575500 725.162048,829.759766 
	C722.140442,833.327393 718.837830,837.054260 715.194153,840.834717 
z"/>
<path fill="#D6455A" opacity="1.000000" stroke="none" 
	d="
M540.061890,215.520432 
	C537.874817,212.445908 535.709961,208.972565 533.437866,205.180084 
	C537.686707,206.895676 539.779419,210.420227 540.061890,215.520432 
z"/>
<path fill="#D6455A" opacity="1.000000" stroke="none" 
	d="
M732.994995,820.616943 
	C734.914978,817.240540 737.166565,813.777710 739.710083,810.147949 
	C737.776855,813.497437 735.551697,817.013977 732.994995,820.616943 
z"/>
<path fill="#D6455A" opacity="1.000000" stroke="none" 
	d="
M638.232910,229.343155 
	C638.016724,232.862503 637.526611,236.570999 636.684387,240.700745 
	C636.332275,241.121994 635.903564,241.123520 635.903564,241.123520 
	C636.588684,237.259781 637.273804,233.396057 638.232910,229.343155 
z"/>
<path fill="#D6455A" opacity="1.000000" stroke="none" 
	d="
M725.893677,829.417480 
	C727.735107,826.634277 729.911011,823.813232 732.378906,820.843384 
	C730.523254,823.589600 728.375671,826.484619 725.893677,829.417480 
z"/>
<path fill="#D6455A" opacity="1.000000" stroke="none" 
	d="
M561.013306,743.637939 
	C558.928345,741.733276 556.840820,739.467285 554.625610,736.898315 
	C556.668823,738.822449 558.839844,741.049500 561.013306,743.637939 
z"/>
<path fill="#D6455A" opacity="1.000000" stroke="none" 
	d="
M635.099121,711.613953 
	C635.391724,711.107971 635.688782,711.004395 636.221313,710.899048 
	C636.361511,713.020996 636.265625,715.143188 635.800903,717.486206 
	C635.230103,717.478455 635.058044,717.229370 634.915833,716.959656 
	C634.978577,715.312439 635.041321,713.665161 635.099121,711.613953 
z"/>
<path fill="#D6455A" opacity="1.000000" stroke="none" 
	d="
M635.292053,720.916382 
	C634.819763,722.999878 634.347473,725.083313 633.620605,727.422119 
	C633.552307,725.825439 633.738708,723.973511 634.206787,721.647827 
	C634.725952,720.993469 634.993835,720.907532 635.292053,720.916382 
z"/>
<path fill="#D61631" opacity="1.000000" stroke="none" 
	d="
M635.706787,241.394623 
	C635.903564,241.123520 636.332275,241.121994 636.542969,241.082245 
	C636.748962,242.733780 636.744202,244.425049 636.663696,246.533051 
	C636.587891,246.949783 636.194031,246.803314 635.983215,246.785583 
	C635.684937,245.067139 635.597473,243.366440 635.706787,241.394623 
z"/>
<path fill="#D6455A" opacity="1.000000" stroke="none" 
	d="
M702.947510,851.510620 
	C704.009460,850.217896 705.421021,848.984253 707.129028,847.636353 
	C706.049377,848.871277 704.673279,850.220459 702.947510,851.510620 
z"/>
<path fill="#D6455A" opacity="1.000000" stroke="none" 
	d="
M711.072876,844.717285 
	C711.904968,843.502319 713.087708,842.276855 714.578613,840.951782 
	C713.732361,842.137024 712.577942,843.421875 711.072876,844.717285 
z"/>
<path fill="#D6455A" opacity="1.000000" stroke="none" 
	d="
M444.524048,812.908936 
	C445.670685,814.113708 446.813782,815.675720 448.040283,817.556274 
	C446.922638,816.338623 445.721558,814.802368 444.524048,812.908936 
z"/>
<path fill="#D6455A" opacity="1.000000" stroke="none" 
	d="
M448.124481,818.242920 
	C449.073761,819.030396 450.015869,820.175964 451.020142,821.639587 
	C450.093964,820.838806 449.105652,819.719910 448.124481,818.242920 
z"/>
<path fill="#D6455A" opacity="1.000000" stroke="none" 
	d="
M698.336304,854.973755 
	C699.289673,853.917358 700.592041,852.828613 702.199890,851.633057 
	C701.231995,852.664734 699.958618,853.803101 698.336304,854.973755 
z"/>
<path fill="#D61631" opacity="1.000000" stroke="none" 
	d="
M635.468750,720.577026 
	C634.993835,720.907532 634.725952,720.993469 634.290283,721.262451 
	C634.230591,720.094360 634.369080,718.838074 634.711731,717.270691 
	C635.058044,717.229370 635.230103,717.478455 635.621033,717.832520 
	C635.755127,718.717896 635.700256,719.477783 635.468750,720.577026 
z"/>
<path fill="#D6455A" opacity="1.000000" stroke="none" 
	d="
M483.572937,180.337769 
	C482.205048,180.599548 480.559387,180.683151 478.517700,180.650482 
	C479.846191,180.409332 481.570679,180.284454 483.572937,180.337769 
z"/>
<path fill="#D6455A" opacity="1.000000" stroke="none" 
	d="
M695.948120,856.686035 
	C696.216675,856.145752 696.807556,855.612915 697.703369,855.035034 
	C697.429016,855.557861 696.849731,856.125732 695.948120,856.686035 
z"/>
<path fill="#CC1C39" opacity="1.000000" stroke="none" 
	d="
M324.825989,230.337509 
	C324.427338,229.796799 324.063690,228.850555 323.694427,227.517426 
	C324.079529,228.064331 324.470245,228.998154 324.825989,230.337509 
z"/>
<path fill="#D6455A" opacity="1.000000" stroke="none" 
	d="
M708.909912,846.527466 
	C709.125183,845.985413 709.650391,845.409973 710.466614,844.764526 
	C710.245056,845.294434 709.732544,845.894226 708.909912,846.527466 
z"/>
<path fill="#D6455A" opacity="1.000000" stroke="none" 
	d="
M748.729736,197.948120 
	C748.187500,197.767899 747.546631,197.291580 746.811035,196.521713 
	C747.354614,196.702774 747.992920,197.177399 748.729736,197.948120 
z"/>
<path fill="#D6455A" opacity="1.000000" stroke="none" 
	d="
M465.551086,838.816650 
	C465.848175,838.595093 466.106842,838.749695 466.342102,839.269653 
	C466.043243,839.512451 465.774597,839.365112 465.551086,838.816650 
z"/>
<path fill="#D6455A" opacity="1.000000" stroke="none" 
	d="
M466.557373,839.830200 
	C466.838898,839.598694 467.098297,839.735352 467.353333,840.227722 
	C467.070557,840.485596 466.799316,840.357239 466.557373,839.830200 
z"/>
<path fill="#D6455A" opacity="1.000000" stroke="none" 
	d="
M467.588379,840.816895 
	C467.878632,840.599915 468.129486,840.747131 468.367188,841.240601 
	C468.073273,841.497437 467.804932,841.362122 467.588379,840.816895 
z"/>
<path fill="#D6455A" opacity="1.000000" stroke="none" 
	d="
M468.579712,841.806580 
	C468.857361,841.594299 469.103668,841.734253 469.352295,842.203064 
	C469.071167,842.466614 468.802399,842.342285 468.579712,841.806580 
z"/>
<path fill="#D6455A" opacity="1.000000" stroke="none" 
	d="
M707.840149,847.370728 
	C707.662781,847.072754 707.833618,846.838074 708.339539,846.642944 
	C708.555359,846.951538 708.393250,847.202026 707.840149,847.370728 
z"/>
<path fill="#D6455A" opacity="1.000000" stroke="none" 
	d="
M693.537354,858.146606 
	C693.443787,858.110291 693.665771,857.765991 693.760864,857.832397 
	C693.855957,857.898804 693.630920,858.182983 693.537354,858.146606 
z"/>
</svg>